<svg width="137" height="32" viewBox="0 0 137 32" fill="none" xmlns="http://www.w3.org/2000/svg">
<path d="M32 16C32 7.16344 24.8366 0 16 0C7.16344 0 0 7.16344 0 16C0 24.8366 7.16344 32 16 32C24.8366 32 32 24.8366 32 16Z" fill="#1C1C1C"/>
<path d="M46.4565 12.9555C46.5076 12.6439 46.5303 12.3284 46.5244 12.0128C46.5242 11.7857 46.5093 11.5589 46.48 11.3338C46.4527 11.1282 46.3982 10.9271 46.3181 10.7358C46.2476 10.5666 46.1274 10.4227 45.9734 10.3232C45.7929 10.216 45.5852 10.1634 45.3754 10.1717C45.1114 10.1687 44.8509 10.2325 44.6181 10.3571C44.3897 10.4788 44.1832 10.6377 44.007 10.8272C43.6458 11.2276 43.4458 11.7477 43.4456 12.287C43.4226 12.6221 43.5334 12.9526 43.7537 13.2062C43.9869 13.4352 44.2653 13.6131 44.5711 13.7284C44.943 13.8773 45.3276 13.9927 45.7201 14.0732C46.1484 14.1645 46.5949 14.2716 47.0545 14.3944C47.4469 14.5053 47.8309 14.644 48.2035 14.8096C48.5813 14.9741 48.9276 15.203 49.2272 15.4859C49.544 15.7986 49.7906 16.1751 49.9505 16.5905C50.1494 17.131 50.2434 17.7044 50.2273 18.2801C50.2551 19.1288 50.0568 19.9696 49.6528 20.7165C49.2674 21.3778 48.7213 21.9311 48.0651 22.3251C47.324 22.7649 46.5104 23.069 45.6626 23.2235C44.6669 23.4143 43.6551 23.5079 42.6412 23.5029C41.7354 23.5194 40.8301 23.4468 39.9385 23.2861C39.3773 23.1805 38.8274 23.0222 38.2959 22.8135C37.8963 22.6655 37.5349 22.4299 37.2383 22.1241L38.0217 18.9747H42.0667C42.0537 19.1131 42.038 19.3012 42.0224 19.5388C42.0067 19.7764 41.9988 19.9645 41.9988 20.1002C42.0003 20.2937 42.023 20.4863 42.0667 20.6748C42.1115 20.8693 42.1854 21.056 42.2861 21.2284C42.3904 21.4 42.5369 21.5421 42.7118 21.641C42.923 21.7554 43.161 21.8113 43.4012 21.8029C43.687 21.8069 43.9688 21.7357 44.2185 21.5966C44.4487 21.4624 44.6509 21.285 44.8139 21.0743C44.9728 20.8685 45.0956 20.6371 45.1769 20.3901C45.2597 20.1497 45.3029 19.8975 45.3049 19.6433C45.3152 19.3418 45.2302 19.0449 45.062 18.7945C44.8893 18.553 44.6655 18.3524 44.4066 18.207C44.1047 18.0354 43.7851 17.897 43.4534 17.7944L42.3383 17.4366C41.9701 17.3296 41.5836 17.199 41.1789 17.0475C40.7743 16.8952 40.3975 16.6773 40.0638 16.4025C39.7156 16.1149 39.4295 15.7595 39.2229 15.358C38.9835 14.852 38.8697 14.2957 38.8913 13.7363C38.8605 12.8529 39.1231 11.9842 39.6381 11.2659C40.1389 10.5935 40.7817 10.0398 41.521 9.64423C42.3014 9.22189 43.1428 8.92324 44.0148 8.75897C44.8629 8.59015 45.725 8.5027 46.5897 8.49783C47.5258 8.47939 48.459 8.60804 49.3551 8.87909C49.9921 9.06132 50.5892 9.36162 51.1152 9.76435L50.2639 12.9607L46.4565 12.9555Z" fill="#1C1C1C"/>
<path d="M57.5047 12.9422C58.2692 12.9151 59.0317 13.0357 59.7505 13.2974C60.3021 13.5174 60.7744 13.8987 61.1058 14.3915C61.3275 14.7396 61.4956 15.119 61.6046 15.517C61.7295 15.9898 61.7893 16.4774 61.7822 16.9664C61.7815 17.4411 61.7378 17.9149 61.6516 18.3817C61.5679 18.8441 61.4474 19.2991 61.2912 19.7423C61.1394 20.1654 60.9506 20.5743 60.7272 20.9644C60.5213 21.3255 60.2761 21.6627 59.996 21.9698C59.5223 22.4974 58.9206 22.894 58.249 23.1214C57.4584 23.3593 56.6352 23.4703 55.8099 23.4505C55.0489 23.4741 54.2891 23.3763 53.5589 23.1606C53.0249 22.9921 52.5537 22.6674 52.2062 22.2283C51.9504 21.8855 51.7617 21.4974 51.65 21.0845C51.5033 20.5177 51.4356 19.9333 51.4489 19.348C51.4308 18.2501 51.6481 17.1611 52.0861 16.1542C52.4733 15.2589 53.0994 14.4874 53.8958 13.9241C54.3716 13.5894 54.9017 13.3394 55.4626 13.1851C56.1291 13.0116 56.8161 12.9299 57.5047 12.9422ZM55.6767 22.3249C55.8099 22.3205 55.9407 22.2887 56.061 22.2317C56.1814 22.1746 56.2888 22.0935 56.3766 21.9933C56.6247 21.7325 56.8309 21.4347 56.9877 21.1106C57.1929 20.7029 57.3675 20.2804 57.5099 19.8467C57.6659 19.3653 57.7975 18.8764 57.9043 18.3817C58.0113 17.8777 58.0923 17.3764 58.1654 16.8776C58.222 16.4262 58.2516 15.9719 58.2542 15.517C58.282 15.1262 58.2241 14.7341 58.0844 14.368C58.0434 14.2725 57.9747 14.1913 57.8873 14.135C57.7998 14.0787 57.6975 14.0498 57.5935 14.0521C57.4601 14.0569 57.3289 14.0879 57.2074 14.1435C57.086 14.1991 56.9767 14.278 56.8858 14.3759C56.6325 14.6289 56.4186 14.9185 56.2513 15.235C56.0405 15.6321 55.8657 16.0472 55.729 16.4754C55.5749 16.9429 55.4391 17.4208 55.3268 17.9143C55.2141 18.3977 55.1269 18.8867 55.0657 19.3793C55.0086 19.8227 54.9789 20.2692 54.9769 20.7163C54.9769 21.3274 55.0422 21.7609 55.178 21.9776C55.2228 22.0767 55.2941 22.1614 55.3839 22.2227C55.4737 22.2839 55.5786 22.3193 55.6872 22.3249H55.6767Z" fill="#1C1C1C"/>
<path d="M64.0887 13.1045H70.8626L70.6015 14.3266H67.3059L66.6792 17.2723H69.4316L69.1705 18.5101H66.4207L65.3918 23.3229H61.916L64.0887 13.1045Z" fill="#1C1C1C"/>
<path d="M79.6157 14.3266H77.0356L75.1215 23.3229H71.6352L73.5494 14.3266H70.9902L71.2905 13.1045H79.9081L79.6157 14.3266Z" fill="#1C1C1C"/>
<path d="M80.002 13.1045H83.919L84.1932 20.0717L86.8804 13.1045H90.0663L90.4841 20.0717L93.1869 13.1045H94.8764L90.9124 23.3229H87.293L86.9587 17.5465L84.5458 23.3229H80.6914L80.002 13.1045Z" fill="#1C1C1C"/>
<path d="M102.435 23.3229H98.6693L98.4448 20.7637H95.4678L94.3266 23.3229H92.7598L97.5073 13.1045H101.323L102.435 23.3229ZM96.0005 19.586H98.3325L97.9617 15.2093L96.0005 19.586Z" fill="#1C1C1C"/>
<path d="M113.232 15.5322C113.237 16.1561 113.055 16.7671 112.71 17.2871C112.278 17.879 111.66 18.3093 110.955 18.5092L112.812 23.322H109.226L107.811 18.8643H107.633L106.683 23.322H103.207L105.38 13.1036H109.613C110.081 13.1016 110.548 13.1313 111.012 13.1924C111.414 13.2381 111.803 13.3577 112.161 13.5449C112.485 13.7169 112.755 13.9732 112.945 14.2866C113.153 14.6675 113.253 15.0985 113.232 15.5322ZM108.597 17.8328C108.729 17.8358 108.861 17.8126 108.984 17.7647C109.107 17.7167 109.22 17.6449 109.315 17.5534C109.518 17.3581 109.682 17.1259 109.798 16.8692C109.922 16.5945 110.01 16.3048 110.059 16.0075C110.109 15.7491 110.136 15.487 110.14 15.2241C110.147 14.9777 110.098 14.733 109.997 14.5085C109.933 14.4025 109.839 14.3177 109.727 14.2647C109.615 14.2118 109.49 14.193 109.367 14.2108H108.644L107.85 17.8328H108.597Z" fill="#1C1C1C"/>
<path d="M115.567 13.1045H122.341L122.08 14.3266H118.8L118.126 17.4316H120.876L120.615 18.6406H117.868L117.126 22.0825H120.411L120.168 23.3229H113.395L115.567 13.1045Z" fill="#1C1C1C"/>
<path d="M127.75 16.0653C127.786 15.847 127.802 15.6258 127.797 15.4046C127.797 15.2457 127.787 15.0869 127.766 14.9294C127.746 14.786 127.708 14.6456 127.654 14.5115C127.603 14.3933 127.518 14.2926 127.411 14.2217C127.285 14.1464 127.139 14.1101 126.993 14.1172C126.811 14.1159 126.631 14.1598 126.471 14.2452C126.31 14.33 126.165 14.4423 126.042 14.5768C125.918 14.7129 125.82 14.8704 125.753 15.0417C125.684 15.2191 125.648 15.4076 125.648 15.5979C125.633 15.8323 125.71 16.0632 125.865 16.2403C126.028 16.4022 126.222 16.5285 126.437 16.6111C126.697 16.715 126.966 16.7962 127.241 16.854C127.541 16.9166 127.852 16.9924 128.176 17.0785C128.45 17.157 128.719 17.2538 128.98 17.3684C129.245 17.4837 129.487 17.6446 129.696 17.8437C129.92 18.0649 130.092 18.3322 130.202 18.6271C130.341 19.0056 130.407 19.4071 130.396 19.8101C130.416 20.405 130.277 20.9945 129.993 21.5179C129.723 21.9799 129.342 22.3669 128.884 22.6434C128.365 22.9506 127.795 23.1628 127.202 23.2702C126.505 23.4028 125.796 23.4676 125.087 23.4634C124.453 23.4758 123.82 23.4251 123.196 23.3119C122.8 23.2389 122.411 23.1278 122.037 22.9803C121.757 22.8762 121.503 22.7112 121.295 22.4972L121.843 20.2932H124.677C124.664 20.3898 124.653 20.523 124.643 20.6875C124.632 20.852 124.627 20.9852 124.627 21.0818C124.627 21.2174 124.644 21.3524 124.677 21.484C124.706 21.6155 124.757 21.7415 124.826 21.8574C124.899 21.9775 125.001 22.0772 125.123 22.1473C125.271 22.2274 125.438 22.2662 125.606 22.2595C125.806 22.2636 126.004 22.214 126.178 22.1159C126.339 22.0223 126.481 21.8992 126.596 21.7529C126.71 21.6079 126.798 21.4445 126.857 21.2698C126.913 21.1014 126.942 20.9251 126.943 20.7475C126.951 20.5366 126.892 20.3285 126.776 20.1521C126.655 19.9832 126.498 19.8432 126.317 19.7422C126.105 19.6216 125.881 19.5244 125.648 19.4523L124.865 19.1912C124.604 19.118 124.342 19.0266 124.05 18.93C123.766 18.8231 123.501 18.6705 123.267 18.4782C123.024 18.2761 122.824 18.0275 122.679 17.7471C122.512 17.3925 122.432 17.0029 122.447 16.6111C122.426 15.9931 122.609 15.3854 122.969 14.8824C123.325 14.4105 123.781 14.0227 124.303 13.7464C124.849 13.4512 125.438 13.2424 126.048 13.1275C126.641 13.0085 127.244 12.9464 127.85 12.9421C128.506 12.927 129.161 13.0151 129.79 13.2032C130.235 13.3364 130.65 13.5526 131.015 13.8404L130.422 16.0784L127.75 16.0653Z" fill="#1C1C1C"/>
<path d="M133.337 21.3954H132.658V23.0928H132.135V21.3954H131.459V20.9697H133.355L133.337 21.3954Z" fill="#1C1C1C"/>
<path d="M134.276 20.9697L134.798 22.4008L135.321 20.9697H136.018V23.0928H135.496V22.6645L135.55 21.5468L134.976 23.0928H134.623L134.051 21.5521L134.106 22.6645V23.0928H133.584V20.9697H134.276Z" fill="#1C1C1C"/>
<path d="M24.1844 12.7041L22.8474 13.6468L22.6411 13.3543C22.0169 12.4688 21.1004 11.8319 20.0528 11.5558C19.0052 11.2797 17.8938 11.3821 16.9143 11.8449L16.1309 10.4087C17.4617 9.75602 18.9817 9.59943 20.4177 9.96704C21.8537 10.3346 23.1115 11.2024 23.965 12.4142L24.1844 12.7041Z" fill="#D5FA52"/>
<path d="M25.1136 15.1826V16C25.1139 17.3345 24.6858 18.6339 23.8923 19.7068C23.0987 20.7797 21.9816 21.5695 20.7055 21.9599C19.4294 22.3503 18.0616 22.3206 16.8036 21.8753C15.5456 21.43 14.4638 20.5925 13.7175 19.4862C13.3876 18.9736 12.9007 18.5816 12.3295 18.3688C11.7584 18.1559 11.1337 18.1337 10.5488 18.3053C9.96393 18.4769 9.45034 18.8333 9.08479 19.321C8.71924 19.8088 8.52138 20.4017 8.52079 21.0112V21.3716H6.88867V21.0112C6.8886 20.0512 7.19867 19.1168 7.77268 18.3473C8.34669 17.5777 9.15394 17.0142 10.0742 16.7406C10.9944 16.467 11.9784 16.498 12.8796 16.829C13.7808 17.16 14.551 17.7733 15.0754 18.5774C15.7399 19.5585 16.7577 20.245 17.9162 20.4936C19.0747 20.7422 20.2846 20.5338 21.2931 19.9118C21.5402 19.7606 21.7719 19.5857 21.9851 19.3896C22.7261 18.7108 23.225 17.8085 23.4057 16.82H19.6114L18.7261 15.1852L25.1136 15.1826Z" fill="#D5FA52"/>
<path d="M12.4379 10.0039H7.12109V15.6053H12.4379C13.1659 15.5831 13.8566 15.2783 14.3637 14.7555C14.8708 14.2327 15.1544 13.533 15.1544 12.8046C15.1544 12.0763 14.8708 11.3766 14.3637 10.8538C13.8566 10.331 13.1659 10.0261 12.4379 10.0039ZM12.4379 14.4433H8.28839V11.1686H12.4379C12.8714 11.1686 13.2872 11.3408 13.5938 11.6474C13.9004 11.954 14.0726 12.3698 14.0726 12.8033C14.0726 13.2369 13.9004 13.6527 13.5938 13.9592C13.2872 14.2658 12.8714 14.438 12.4379 14.438V14.4433Z" fill="#D5FA52"/>
<path d="M12.4379 15.8384H6.88867V9.76953H12.4379C13.2427 9.76953 14.0145 10.0892 14.5836 10.6583C15.1526 11.2274 15.4723 11.9992 15.4723 12.804C15.4723 13.6088 15.1526 14.3806 14.5836 14.9496C14.0145 15.5187 13.2427 15.8384 12.4379 15.8384ZM7.35611 15.371H12.4379C13.1042 15.3497 13.7361 15.0701 14.1999 14.5912C14.6637 14.1124 14.923 13.4719 14.923 12.8053C14.923 12.1386 14.6637 11.4982 14.1999 11.0193C13.7361 10.5405 13.1042 10.2608 12.4379 10.2396H7.35611V15.371ZM12.4379 14.6737H8.05335V10.9342H12.4379C12.9338 10.9342 13.4094 11.1312 13.76 11.4819C14.1106 11.8325 14.3076 12.3081 14.3076 12.804C14.3076 13.2999 14.1106 13.7754 13.76 14.1261C13.4094 14.4767 12.9338 14.6737 12.4379 14.6737ZM8.52079 14.2037H12.4379C12.8091 14.2037 13.1651 14.0562 13.4276 13.7937C13.6901 13.5312 13.8376 13.1752 13.8376 12.804C13.8376 12.4327 13.6901 12.0767 13.4276 11.8142C13.1651 11.5517 12.8091 11.4043 12.4379 11.4043H8.52079V14.2037Z" fill="#D5FA52"/>
</svg>
